<svg width="429" height="77.42926829268293" viewBox="0 0 410 74" class="looka-1j8o68f"><defs id="SvgjsDefs1195"></defs><g id="SvgjsG1196" featurekey="symbolContainer" transform="matrix(1,0,0,1,0,0)" fill="#111111"><rect xmlns="http://www.w3.org/2000/svg" width="75" height="74" rx="10" ry="10"></rect></g><g id="SvgjsG1197" featurekey="uHI19F-0" transform="matrix(0.38838228583335876,0,0,0.38838228583335876,18.080674370740883,17.72582739248588)" fill="#fcfcfc"><path xmlns="http://www.w3.org/2000/svg" fill="#fcfcfc" d="M76.045,93.302c-8.498,0-15.411-6.913-15.411-15.41c0.003-1.083,0.117-2.16,0.341-3.213L25.603,39.306  c-0.766,0.157-1.945,0.346-3.208,0.346c-8.496,0-15.408-6.91-15.408-15.405c0-1.175,0.143-2.352,0.436-3.596  c0.192-0.81,1.005-1.303,1.808-1.118c0.809,0.19,1.307,1,1.118,1.807c-0.241,1.016-0.356,1.966-0.356,2.907  c0,6.836,5.563,12.4,12.403,12.4c1.689,0,3.253-0.437,3.269-0.441c0.519-0.151,1.085-0.004,1.473,0.383l36.561,36.561  c0.382,0.382,0.528,0.939,0.386,1.462c-0.292,1.064-0.441,2.168-0.444,3.283c0,6.837,5.566,12.403,12.406,12.403  c0.006,0,0.015,0,0.021,0l-6.781-6.781c-0.282-0.282-0.44-0.663-0.44-1.063c0-0.398,0.158-0.78,0.44-1.063l10.393-10.384  c0.587-0.587,1.538-0.587,2.125,0l6.643,6.644c-0.129-6.729-5.643-12.16-12.399-12.16c-1.109,0-2.213,0.146-3.275,0.435  c-0.513,0.144-1.076-0.006-1.455-0.388L34.871,29.095c-0.383-0.383-0.53-0.94-0.386-1.461c0.264-0.957,0.315-2.043,0.313-3.383  c0-6.762-5.433-12.277-12.161-12.406l6.551,6.552c0.587,0.587,0.587,1.538,0,2.125l-10.39,10.387c-0.587,0.587-1.538,0.587-2.125,0  s-0.587-1.538,0-2.125l9.328-9.325l-7.711-7.714c-0.387-0.387-0.533-0.955-0.38-1.48c0.152-0.527,0.578-0.927,1.113-1.047  c1.123-0.252,2.257-0.38,3.372-0.38c8.496,0,15.408,6.913,15.408,15.411c0.003,1.015-0.016,2.161-0.223,3.307l35.264,35.264  c1.05-0.22,2.121-0.332,3.201-0.332c8.494,0,15.407,6.91,15.407,15.405c0,1.118-0.129,2.253-0.378,3.374  c-0.121,0.534-0.522,0.963-1.048,1.115c-0.525,0.144-1.098,0.003-1.481-0.382l-7.806-7.805l-8.269,8.26l7.888,7.888  c0.384,0.384,0.53,0.947,0.384,1.47c-0.149,0.525-0.569,0.928-1.098,1.054C78.43,93.155,77.219,93.302,76.045,93.302z"></path><g xmlns="http://www.w3.org/2000/svg"><path fill="#fcfcfc" d="M25.077,86.448c-0.384,0-0.769-0.147-1.063-0.44c-0.586-0.587-0.586-1.538,0-2.125l18.785-18.791   c0.587-0.586,1.538-0.586,2.125,0c0.587,0.587,0.587,1.538,0,2.125L26.139,86.008C25.845,86.301,25.461,86.448,25.077,86.448z"></path></g><g xmlns="http://www.w3.org/2000/svg"><path fill="#fcfcfc" d="M65.913,47.434c-0.385,0-0.77-0.147-1.063-0.44c-0.587-0.587-0.587-1.538,0-2.125l12.121-12.118   l-8.809-8.814L55.827,36.272c-0.587,0.587-1.537,0.587-2.124,0s-0.587-1.538,0-2.125L67.101,20.75   c0.282-0.282,0.663-0.44,1.063-0.44l0,0c0.399,0,0.78,0.159,1.063,0.44l10.933,10.938c0.587,0.587,0.587,1.538,0,2.125   L66.975,46.994C66.682,47.287,66.297,47.434,65.913,47.434z"></path></g><g xmlns="http://www.w3.org/2000/svg"><path fill="#fcfcfc" d="M86.849,26.501c-0.385,0-0.769-0.147-1.063-0.44L74.848,15.128c-0.282-0.282-0.44-0.664-0.44-1.063   s0.158-0.78,0.44-1.062l6.71-6.708c0.587-0.586,1.538-0.586,2.125,0l10.936,10.933c0.587,0.587,0.587,1.538,0,2.125   s-1.537,0.587-2.124,0L82.62,9.482l-4.586,4.583l9.877,9.871c0.587,0.587,0.587,1.538,0,2.124   C87.617,26.354,87.233,26.501,86.849,26.501z"></path></g><path xmlns="http://www.w3.org/2000/svg" fill="#fcfcfc" d="M15.332,74.939l18.726-18.727c0.587-0.587,0.587-1.537,0-2.124c-0.586-0.587-1.537-0.587-2.124,0  L13.075,72.947c-0.013,0.013-0.016,0.029-0.028,0.043c-0.16,0.145-0.293,0.322-0.381,0.535L5.055,92.073  c-0.23,0.557-0.103,1.199,0.323,1.628c0.288,0.288,0.673,0.443,1.066,0.443c0.189,0,0.379-0.035,0.561-0.108l9.008-3.618  c0.468-0.188,0.81-0.599,0.911-1.092c0.101-0.496-0.051-1.006-0.408-1.364l-2.327-2.33c-0.587-0.587-1.539-0.587-2.126,0  s-0.587,1.538-0.001,2.125l0.721,0.722l-3.598,1.443L15.332,74.939z"></path><g xmlns="http://www.w3.org/2000/svg"><path fill="#fcfcfc" d="M20.942,82.258c-0.192,0-0.385-0.073-0.531-0.22c-0.293-0.294-0.293-0.77,0-1.063L39.877,61.51   c0.293-0.294,0.769-0.294,1.062,0c0.293,0.293,0.293,0.769,0,1.062L21.473,82.038C21.327,82.185,21.134,82.258,20.942,82.258z"></path></g><g xmlns="http://www.w3.org/2000/svg"><path fill="#fcfcfc" d="M61.221,43.801c-0.192,0-0.385-0.073-0.531-0.22c-0.293-0.293-0.293-0.769,0-1.062l10.975-10.971   c0.293-0.296,0.769-0.291,1.062,0c0.294,0.293,0.294,0.769,0,1.062L61.752,43.581C61.605,43.728,61.413,43.801,61.221,43.801z"></path></g><g xmlns="http://www.w3.org/2000/svg"><path fill="#fcfcfc" d="M83.633,30.896c-0.385,0-0.769-0.147-1.063-0.44L71.156,19.042c-0.587-0.587-0.587-1.538,0-2.125   s1.537-0.587,2.124,0l11.414,11.415c0.587,0.587,0.587,1.538,0,2.124C84.401,30.75,84.017,30.896,83.633,30.896z"></path></g></g><g id="SvgjsG1198" featurekey="8FbbNb-0" transform="matrix(1.7605634927749634,0,0,1.7605634927749634,93.41549074961942,10.40844968210853)" fill="#111111"><path d="M5.86 10.3 c1.5067 0 2.72 0.5 3.64 1.5 l-1.36 1.24 c-0.65334 -0.70666 -1.44 -1.06 -2.36 -1.06 c-0.88 0 -1.5933 0.31334 -2.14 0.94 s-0.82 1.4333 -0.82 2.42 c0 0.93334 0.28666 1.7 0.86 2.3 s1.3067 0.90666 2.2 0.92 c0.94666 0 1.7133 -0.35334 2.3 -1.06 l1.28 1.28 c-0.85334 0.97334 -2.0534 1.46 -3.6 1.46 c-1.4533 0 -2.6366 -0.45334 -3.55 -1.36 s-1.3833 -2.1 -1.41 -3.58 c0.01334 -1.5067 0.48334 -2.7134 1.41 -3.62 s2.11 -1.3667 3.55 -1.38 z M14.8 10.28 c1.2 0 2.15 0.27328 2.85 0.81994 s1.07 1.3067 1.11 2.28 l0 5.08 c0 0.48 0.02666 0.99334 0.08 1.54 l-1.6 0 c-0.04 -0.42666 -0.06 -0.90666 -0.06 -1.44 l-0.04 0 c-0.41334 0.61334 -0.89 1.0467 -1.43 1.3 s-1.17 0.38 -1.89 0.38 c-0.97334 0 -1.7633 -0.26 -2.37 -0.78 s-0.91 -1.2067 -0.91 -2.06 c0 -1.08 0.45334 -1.8967 1.36 -2.45 s2.1866 -0.83 3.84 -0.83 l1.34 0 l0 -0.34 c0 -0.64 -0.21 -1.1433 -0.63 -1.51 s-0.97 -0.55 -1.65 -0.55 c-0.50666 0 -0.95 0.07666 -1.33 0.23 s-0.83 0.43668 -1.35 0.85002 l-1.08 -1.12 c1.0267 -0.90666 2.28 -1.3733 3.76 -1.4 z M12.34 17.259999999999998 c0 1.0267 0.68002 1.54 2.04 1.54 c0.81334 0 1.4633 -0.24334 1.95 -0.73 s0.73666 -1.19 0.75 -2.11 l0 -0.52 l-1.02 0 c-1.1733 0 -2.0866 0.15 -2.74 0.45 s-0.98 0.75666 -0.98 1.37 z M26.540000000000003 10.28 c1.4 0 2.5434 0.45998 3.43 1.38 s1.3433 2.12 1.37 3.6 c0 1.48 -0.45334 2.6766 -1.36 3.59 s-2.06 1.3767 -3.46 1.39 c-0.69334 0 -1.34 -0.14666 -1.94 -0.44 s-1.0533 -0.68 -1.36 -1.16 l-0.04 0 l0 7 l-1.8 0 l0 -15.12 l1.8 0 l0 1.36 l0.04 0 c0.36 -0.50666 0.83334 -0.9 1.42 -1.18 s1.22 -0.42 1.9 -0.42 z M23.180000000000003 15.26 c0 0.98666 0.28998 1.7833 0.86998 2.39 s1.33 0.91 2.25 0.91 c0.96 0 1.7167 -0.30334 2.27 -0.91 s0.83668 -1.4033 0.85002 -2.39 c0 -0.98666 -0.28334 -1.78 -0.85 -2.38 s-1.33 -0.90666 -2.29 -0.92 c-0.94666 0 -1.7 0.31 -2.26 0.93 s-0.84 1.41 -0.84 2.37 z M36.800000000000004 10.28 c0.72 0 1.3633 0.13338 1.93 0.40004 s1.0033 0.65332 1.31 1.16 l-1.4 1.06 c-0.53334 -0.62666 -1.18 -0.94 -1.94 -0.94 c-0.45334 0 -0.83 0.1 -1.13 0.3 s-0.45 0.45334 -0.45 0.76 c0 0.66666 0.62 1.12 1.86 1.36 c1.2133 0.22666 2.07 0.56 2.57 1 s0.75 1.0667 0.75 1.88 c0 0.92 -0.35 1.6433 -1.05 2.17 s-1.6367 0.79666 -2.81 0.81 c-0.88 0 -1.6033 -0.13666 -2.17 -0.41 s-1.0567 -0.69668 -1.47 -1.27 l1.36 -1.12 c0.72 0.74666 1.4867 1.12 2.3 1.12 c0.53334 0 0.98668 -0.10666 1.36 -0.32 s0.56 -0.50668 0.56 -0.88002 c0 -0.65334 -0.6 -1.1067 -1.8 -1.36 c-1.3333 -0.26666 -2.23 -0.62332 -2.69 -1.07 s-0.69 -1.0233 -0.69 -1.73 c0 -0.88 0.34 -1.5833 1.02 -2.11 s1.54 -0.79666 2.58 -0.81 z M44.980000000000004 7.859999999999999 l-0.000019531 2.66 l2.58 0 l0 1.56 l-2.58 0 l0 4.56 c0 0.61334 0.08666 1.0867 0.26 1.42 s0.54 0.5 1.1 0.5 c0.53334 0 0.96 -0.09334 1.28 -0.28 l0 1.64 c-0.34666 0.18666 -0.89332 0.29332 -1.64 0.31998 c-0.72 0 -1.2767 -0.11 -1.67 -0.33 s-0.68 -0.52666 -0.86 -0.92 s-0.27 -1.01 -0.27 -1.85 l0 -5.06 l-2.08 0 l0 -1.56 l2.08 0 l0 -2.66 l1.8 0 z M54.46 10.28 c1.4 0 2.5866 0.48338 3.56 1.45 s1.4667 2.1434 1.48 3.53 c0 1.4 -0.48666 2.5734 -1.46 3.52 s-2.1666 1.4333 -3.58 1.46 c-1.3867 0 -2.5666 -0.48 -3.54 -1.44 s-1.4733 -2.14 -1.5 -3.54 c0 -1.3733 0.48334 -2.54 1.45 -3.5 s2.1634 -1.4533 3.59 -1.48 z M51.34 15.26 c0 0.97334 0.28664 1.7633 0.85998 2.37 s1.3267 0.91666 2.26 0.93 c0.94666 0 1.7 -0.30334 2.26 -0.91 s0.84666 -1.4033 0.86 -2.39 c0 -0.97334 -0.28 -1.7633 -0.84 -2.37 s-1.3267 -0.91666 -2.3 -0.93 c-0.94666 0 -1.7 0.31334 -2.26 0.94 s-0.84 1.4133 -0.84 2.36 z M66.72 10.28 c1.0667 0 1.9033 0.32 2.51 0.96 s0.91666 1.5 0.93 2.58 l0 6.18 l-1.8 0 l0 -5.66 c0 -0.73334 -0.19 -1.3133 -0.57 -1.74 s-0.91 -0.64 -1.59 -0.64 c-0.84 0 -1.49 0.28 -1.95 0.84 s-0.69 1.3067 -0.69 2.24 l0 4.96 l-1.8 0 l0 -9.48 l1.8 0 l0 1.46 l0.04 0 c0.25334 -0.53334 0.66334 -0.95 1.23 -1.25 s1.1967 -0.45 1.89 -0.45 z M77.22000000000001 10.28 c1.4533 0 2.5834 0.45664 3.39 1.37 s1.2167 2.17 1.23 3.77 l0 0.5 l-7.6 0 c0 0.77334 0.31 1.4233 0.93 1.95 s1.3767 0.79666 2.27 0.81 c0.98666 0 1.8533 -0.47334 2.6 -1.42 l1.36 1.04 c-1.0133 1.2933 -2.4134 1.94 -4.2 1.94 c-1.4533 0 -2.6234 -0.46334 -3.51 -1.39 s-1.3433 -2.1234 -1.37 -3.59 c0 -1.4133 0.45666 -2.59 1.37 -3.53 s2.09 -1.4233 3.53 -1.45 z M79.92000000000002 14.48 c-0.02666 -0.89334 -0.28 -1.5767 -0.76 -2.05 s-1.14 -0.71 -1.98 -0.71 c-0.56 0 -1.0633 0.13666 -1.51 0.41 s-0.79666 0.62668 -1.05 1.06 s-0.38 0.86334 -0.38 1.29 l5.68 0 z M89.16000000000001 10.28 c1.4 0 2.5434 0.45998 3.43 1.38 s1.3433 2.12 1.37 3.6 c0 1.48 -0.45334 2.6766 -1.36 3.59 s-2.06 1.3767 -3.46 1.39 c-0.69334 0 -1.34 -0.14666 -1.94 -0.44 s-1.0533 -0.68 -1.36 -1.16 l-0.04 0 l0 7 l-1.8 0 l0 -15.12 l1.8 0 l0 1.36 l0.04 0 c0.36 -0.50666 0.83334 -0.9 1.42 -1.18 s1.22 -0.42 1.9 -0.42 z M85.80000000000001 15.26 c0 0.98666 0.28998 1.7833 0.86998 2.39 s1.33 0.91 2.25 0.91 c0.96 0 1.7167 -0.30334 2.27 -0.91 s0.83668 -1.4033 0.85002 -2.39 c0 -0.98666 -0.28334 -1.78 -0.85 -2.38 s-1.33 -0.90666 -2.29 -0.92 c-0.94666 0 -1.7 0.31 -2.26 0.93 s-0.84 1.41 -0.84 2.37 z M98.02000000000001 10.52 l0 5.68 c0 0.74666 0.19666 1.3267 0.59 1.74 s0.91668 0.62 1.57 0.62 c0.84 0 1.49 -0.27666 1.95 -0.83 s0.69 -1.3033 0.69 -2.25 l0 -4.96 l1.8 0 l0 9.48 l-1.8 0 l0 -1.46 l-0.04 0 c-0.25334 0.53334 -0.66668 0.95 -1.24 1.25 s-1.2 0.45 -1.88 0.45 c-1.0533 0 -1.89 -0.32666 -2.51 -0.98 s-0.93 -1.5067 -0.93 -2.56 l0 -6.18 l1.8 0 z M112.02000000000002 10.28 c0.33334 0 0.6 0.04 0.8 0.12 l-0.08 1.94 c-0.34666 -0.09334 -0.64666 -0.14 -0.9 -0.14 c-1.7733 0 -2.6734 0.98666 -2.7 2.96 l0 4.84 l-1.8 0 l0 -9.48 l1.8 0 l0 1.46 l0.04 0 c0.24 -0.50666 0.62666 -0.91666 1.16 -1.23 s1.0933 -0.47 1.68 -0.47 z M118.88000000000002 10.3 c1.5067 0 2.72 0.5 3.64 1.5 l-1.36 1.24 c-0.65334 -0.70666 -1.44 -1.06 -2.36 -1.06 c-0.88 0 -1.5933 0.31334 -2.14 0.94 s-0.82 1.4333 -0.82 2.42 c0 0.93334 0.28666 1.7 0.86 2.3 s1.3067 0.90666 2.2 0.92 c0.94666 0 1.7133 -0.35334 2.3 -1.06 l1.28 1.28 c-0.85334 0.97334 -2.0534 1.46 -3.6 1.46 c-1.4533 0 -2.6366 -0.45334 -3.55 -1.36 s-1.3833 -2.1 -1.41 -3.58 c0.01334 -1.5067 0.48334 -2.7134 1.41 -3.62 s2.11 -1.3667 3.55 -1.38 z M125.82000000000002 4.880000000000001 l0.000019531 7.1 l0.04 0 c0.25334 -0.53334 0.66334 -0.95 1.23 -1.25 s1.1967 -0.45 1.89 -0.45 c1.0533 0 1.89 0.32 2.51 0.96 s0.93 1.5 0.93 2.58 l0 6.18 l-1.8 0 l0 -5.66 c0 -0.73334 -0.19 -1.3133 -0.57 -1.74 s-0.91 -0.64 -1.59 -0.64 c-0.84 0 -1.4867 0.27334 -1.94 0.82 s-0.68668 1.3 -0.70002 2.26 l0 4.96 l-1.8 0 l0 -15.12 l1.8 0 z M138.94000000000003 10.28 c1.2 0 2.15 0.27328 2.85 0.81994 s1.07 1.3067 1.11 2.28 l0 5.08 c0 0.48 0.02666 0.99334 0.08 1.54 l-1.6 0 c-0.04 -0.42666 -0.06 -0.90666 -0.06 -1.44 l-0.04 0 c-0.41334 0.61334 -0.89 1.0467 -1.43 1.3 s-1.17 0.38 -1.89 0.38 c-0.97334 0 -1.7633 -0.26 -2.37 -0.78 s-0.91 -1.2067 -0.91 -2.06 c0 -1.08 0.45334 -1.8967 1.36 -2.45 s2.1866 -0.83 3.84 -0.83 l1.34 0 l0 -0.34 c0 -0.64 -0.21 -1.1433 -0.63 -1.51 s-0.97 -0.55 -1.65 -0.55 c-0.50666 0 -0.95 0.07666 -1.33 0.23 s-0.83 0.43668 -1.35 0.85002 l-1.08 -1.12 c1.0267 -0.90666 2.28 -1.3733 3.76 -1.4 z M136.48000000000002 17.259999999999998 c0 1.0267 0.68002 1.54 2.04 1.54 c0.81334 0 1.4633 -0.24334 1.95 -0.73 s0.73666 -1.19 0.75 -2.11 l0 -0.52 l-1.02 0 c-1.1733 0 -2.0866 0.15 -2.74 0.45 s-0.98 0.75666 -0.98 1.37 z M148.72000000000003 10.28 c0.72 0 1.3633 0.13338 1.93 0.40004 s1.0033 0.65332 1.31 1.16 l-1.4 1.06 c-0.53334 -0.62666 -1.18 -0.94 -1.94 -0.94 c-0.45334 0 -0.83 0.1 -1.13 0.3 s-0.45 0.45334 -0.45 0.76 c0 0.66666 0.62 1.12 1.86 1.36 c1.2133 0.22666 2.07 0.56 2.57 1 s0.75 1.0667 0.75 1.88 c0 0.92 -0.35 1.6433 -1.05 2.17 s-1.6367 0.79666 -2.81 0.81 c-0.88 0 -1.6033 -0.13666 -2.17 -0.41 s-1.0567 -0.69668 -1.47 -1.27 l1.36 -1.12 c0.72 0.74666 1.4867 1.12 2.3 1.12 c0.53334 0 0.98668 -0.10666 1.36 -0.32 s0.56 -0.50668 0.56 -0.88002 c0 -0.65334 -0.6 -1.1067 -1.8 -1.36 c-1.3333 -0.26666 -2.23 -0.62332 -2.69 -1.07 s-0.69 -1.0233 -0.69 -1.73 c0 -0.88 0.34 -1.5833 1.02 -2.11 s1.54 -0.79666 2.58 -0.81 z M155.44000000000003 5.800000000000001 c0.36 0 0.67002 0.13002 0.93002 0.39002 s0.39 0.57 0.39 0.93 c0 0.37334 -0.13334 0.68668 -0.4 0.94002 s-0.57332 0.38 -0.91998 0.38 c-0.37334 0 -0.68668 -0.12666 -0.94002 -0.38 s-0.38 -0.56668 -0.38 -0.94002 s0.13334 -0.68668 0.4 -0.94002 s0.57332 -0.38 0.91998 -0.38 z M156.34000000000003 10.52 l0 9.48 l-1.8 0 l0 -9.48 l1.8 0 z M164.16000000000003 10.28 c1.0667 0 1.9033 0.32 2.51 0.96 s0.91666 1.5 0.93 2.58 l0 6.18 l-1.8 0 l0 -5.66 c0 -0.73334 -0.19 -1.3133 -0.57 -1.74 s-0.91 -0.64 -1.59 -0.64 c-0.84 0 -1.49 0.28 -1.95 0.84 s-0.69 1.3067 -0.69 2.24 l0 4.96 l-1.8 0 l0 -9.48 l1.8 0 l0 1.46 l0.04 0 c0.25334 -0.53334 0.66334 -0.95 1.23 -1.25 s1.1967 -0.45 1.89 -0.45 z M174.68000000000004 10.28 c0.68 0 1.3133 0.13998 1.9 0.41998 s1.0533 0.67334 1.4 1.18 l0.04 0 l0 -1.36 l1.8 0 l0 9.48 c-0.01334 1.4 -0.49334 2.5466 -1.44 3.44 s-2.1934 1.3467 -3.74 1.36 c-1.96 0 -3.5066 -0.56666 -4.64 -1.7 l1.22 -1.52 c0.94666 1.0267 2.08 1.54 3.4 1.54 c1.1333 0 1.9833 -0.29 2.55 -0.87 s0.85 -1.37 0.85 -2.37 l0 -1.44 l-0.06 0 c-0.32 0.56 -0.78334 0.98 -1.39 1.26 s-1.2367 0.42 -1.89 0.42 c-1.3867 0 -2.5334 -0.46334 -3.44 -1.39 s-1.3667 -2.07 -1.38 -3.43 c0.01334 -1.52 0.47 -2.7334 1.37 -3.64 s2.05 -1.3667 3.45 -1.38 z M171.78000000000003 15.26 c0 0.94666 0.27662 1.7067 0.82996 2.28 s1.3167 0.87334 2.29 0.9 c0.96 0 1.7167 -0.28666 2.27 -0.86 s0.83668 -1.3467 0.85002 -2.32 c0 -0.98666 -0.28334 -1.78 -0.85 -2.38 s-1.33 -0.90666 -2.29 -0.92 c-0.94666 0 -1.7 0.31334 -2.26 0.94 s-0.84 1.4133 -0.84 2.36 z"></path></g></svg>