<svg width="77.429" height="77.429" viewBox="0 0 77.429 77.429" fill="none" xmlns="http://www.w3.org/2000/svg">
  <rect xmlns="http://www.w3.org/2000/svg" width="75" height="74" rx="10" ry="10" fill="#FFFFFF"/>
  <g fill="#000000">
    <path xmlns="http://www.w3.org/2000/svg" d="M47.614 53.963a5.992 5.992 0 0 1-5.853-7.233L28.024 32.992a6.4 6.4 0 0 1-1.246.134 5.99 5.99 0 0 1-5.984-5.983c0-.456.055-.913.169-1.397a.584.584 0 0 1 1.136.268 5 5 0 0 0-.138 1.129 4.82 4.82 0 0 0 4.817 4.816c.656 0 1.264-.17 1.27-.171a.58.58 0 0 1 .572.148l14.2 14.2a.59.59 0 0 1 .15.568 4.9 4.9 0 0 0-.173 1.275 4.824 4.824 0 0 0 4.818 4.817h.008l-2.633-2.634a.583.583 0 0 1 0-.825l4.036-4.033a.583.583 0 0 1 .825 0l2.58 2.58a4.822 4.822 0 0 0-6.087-4.554.58.58 0 0 1-.565-.15L31.623 29.026a.58.58 0 0 1-.15-.568c.103-.371.123-.793.122-1.313a4.823 4.823 0 0 0-4.723-4.819l2.544 2.545a.583.583 0 0 1 0 .825l-4.035 4.034a.584.584 0 1 1-.826-.825l3.623-3.622-2.995-2.995a.583.583 0 0 1 .285-.982 6 6 0 0 1 1.31-.147c3.3 0 5.984 2.684 5.984 5.985.001.394-.006.84-.087 1.284l13.696 13.696a5.99 5.99 0 0 1 7.227 5.854c0 .434-.05.875-.147 1.31a.58.58 0 0 1-.407.434.6.6 0 0 1-.575-.149l-3.032-3.031-3.211 3.208 3.063 3.063c.15.15.206.368.15.571a.58.58 0 0 1-.427.41 6 6 0 0 1-1.398.169"/>
    <path d="M27.82 51.3a.584.584 0 0 1-.413-.996l7.295-7.298a.584.584 0 1 1 .826.826l-7.296 7.298a.58.58 0 0 1-.413.17m15.86-15.152a.583.583 0 0 1-.413-.996l4.708-4.706-3.421-3.423-4.79 4.79a.583.583 0 1 1-.826-.825l5.204-5.203a.586.586 0 0 1 .825 0l4.247 4.248a.583.583 0 0 1 0 .825l-5.121 5.12a.58.58 0 0 1-.413.17m8.131-8.13a.58.58 0 0 1-.412-.17L47.149 23.6a.583.583 0 0 1 0-.825l2.606-2.605a.584.584 0 0 1 .826 0l4.247 4.246a.583.583 0 1 1-.825.825l-3.835-3.833-1.781 1.78 3.836 3.833a.583.583 0 0 1-.413.996M24.035 46.831l7.272-7.273a.583.583 0 1 0-.824-.825l-7.325 7.324q-.006.008-.01.017a.6.6 0 0 0-.149.208l-2.956 7.203a.583.583 0 0 0 .54.805.6.6 0 0 0 .218-.042l3.498-1.405a.583.583 0 0 0 .195-.954l-.903-.905a.584.584 0 0 0-.826.825l.28.28-1.398.56z" xmlns="http://www.w3.org/2000/svg"/>
    <path d="M26.213 49.673a.292.292 0 0 1-.206-.498l7.56-7.56a.292.292 0 0 1 .413.413l-7.56 7.56a.3.3 0 0 1-.207.085m15.644-14.936a.292.292 0 0 1-.206-.497l4.262-4.261a.292.292 0 1 1 .413.412l-4.263 4.261a.3.3 0 0 1-.206.085m8.704-5.012a.58.58 0 0 1-.412-.17l-4.433-4.433a.583.583 0 1 1 .824-.826l4.433 4.434a.583.583 0 0 1-.412.995" xmlns="http://www.w3.org/2000/svg"/>
  </g>
</svg>
