<svg width="429" height="77.429" viewBox="0 0 429 77.429" fill="none" xmlns="http://www.w3.org/2000/svg">
<rect xmlns="http://www.w3.org/2000/svg" width="75" height="74" rx="10" ry="10" fill="#111"/><g fill="#fcfcfc"><path xmlns="http://www.w3.org/2000/svg" d="M47.614 53.963a5.992 5.992 0 0 1-5.853-7.233L28.024 32.992a6.4 6.4 0 0 1-1.246.134 5.99 5.99 0 0 1-5.984-5.983c0-.456.055-.913.169-1.397a.584.584 0 0 1 1.136.268 5 5 0 0 0-.138 1.129 4.82 4.82 0 0 0 4.817 4.816c.656 0 1.264-.17 1.27-.171a.58.58 0 0 1 .572.148l14.2 14.2a.59.59 0 0 1 .15.568 4.9 4.9 0 0 0-.173 1.275 4.824 4.824 0 0 0 4.818 4.817h.008l-2.633-2.634a.583.583 0 0 1 0-.825l4.036-4.033a.583.583 0 0 1 .825 0l2.58 2.58a4.822 4.822 0 0 0-6.087-4.554.58.58 0 0 1-.565-.15L31.623 29.026a.58.58 0 0 1-.15-.568c.103-.371.123-.793.122-1.313a4.823 4.823 0 0 0-4.723-4.819l2.544 2.545a.583.583 0 0 1 0 .825l-4.035 4.034a.584.584 0 1 1-.826-.825l3.623-3.622-2.995-2.995a.583.583 0 0 1 .285-.982 6 6 0 0 1 1.31-.147c3.3 0 5.984 2.684 5.984 5.985.001.394-.006.84-.087 1.284l13.696 13.696a5.99 5.99 0 0 1 7.227 5.854c0 .434-.05.875-.147 1.31a.58.58 0 0 1-.407.434.6.6 0 0 1-.575-.149l-3.032-3.031-3.211 3.208 3.063 3.063c.15.15.206.368.15.571a.58.58 0 0 1-.427.41 6 6 0 0 1-1.398.169"/><path d="M27.82 51.3a.584.584 0 0 1-.413-.996l7.295-7.298a.584.584 0 1 1 .826.826l-7.296 7.298a.58.58 0 0 1-.413.17m15.86-15.152a.583.583 0 0 1-.413-.996l4.708-4.706-3.421-3.423-4.79 4.79a.583.583 0 1 1-.826-.825l5.204-5.203a.586.586 0 0 1 .825 0l4.247 4.248a.583.583 0 0 1 0 .825l-5.121 5.12a.58.58 0 0 1-.413.17m8.131-8.13a.58.58 0 0 1-.412-.17L47.149 23.6a.583.583 0 0 1 0-.825l2.606-2.605a.584.584 0 0 1 .826 0l4.247 4.246a.583.583 0 1 1-.825.825l-3.835-3.833-1.781 1.78 3.836 3.833a.583.583 0 0 1-.413.996M24.035 46.831l7.272-7.273a.583.583 0 1 0-.824-.825l-7.325 7.324q-.006.008-.01.017a.6.6 0 0 0-.149.208l-2.956 7.203a.583.583 0 0 0 .54.805.6.6 0 0 0 .218-.042l3.498-1.405a.583.583 0 0 0 .195-.954l-.903-.905a.584.584 0 0 0-.826.825l.28.28-1.398.56z" xmlns="http://www.w3.org/2000/svg"/><path d="M26.213 49.673a.292.292 0 0 1-.206-.498l7.56-7.56a.292.292 0 0 1 .413.413l-7.56 7.56a.3.3 0 0 1-.207.085m15.644-14.936a.292.292 0 0 1-.206-.497l4.262-4.261a.292.292 0 1 1 .413.412l-4.263 4.261a.3.3 0 0 1-.206.085m8.704-5.012a.58.58 0 0 1-.412-.17l-4.433-4.433a.583.583 0 1 1 .824-.826l4.433 4.434a.583.583 0 0 1-.412.995" xmlns="http://www.w3.org/2000/svg"/></g><path d="M103.732 28.542q3.979 0 6.408 2.64l-2.394 2.184q-1.725-1.866-4.155-1.866-2.324 0-3.768 1.654c-1.443 1.655-1.443 2.523-1.443 4.261q0 2.465 1.514 4.05c1.514 1.584 2.3 1.596 3.873 1.619q2.5 0 4.05-1.866l2.253 2.253q-2.254 2.57-6.338 2.57-3.838 0-6.25-2.394C95.07 41.253 95.047 39.95 95 37.345q.035-3.98 2.482-6.374c2.447-2.394 3.715-2.406 6.25-2.43m15.74-.034q3.168 0 5.017 1.443c1.848 1.444 1.884 2.301 1.954 4.014v8.944q0 1.268.141 2.711h-2.817q-.106-1.127-.106-2.535h-.07q-1.092 1.62-2.518 2.289c-1.426.669-2.06.669-3.327.669q-2.57 0-4.173-1.374c-1.602-1.373-1.602-2.124-1.602-3.626q0-2.852 2.395-4.314c2.394-1.46 3.85-1.46 6.76-1.46h2.36v-.6q0-1.69-1.11-2.658c-1.109-.968-1.708-.968-2.905-.968q-1.338 0-2.341.405c-1.004.405-1.462.77-2.377 1.496l-1.901-1.972q2.71-2.394 6.62-2.464m-4.332 12.288q0 2.712 3.592 2.712 2.148 0 3.433-1.286c1.285-1.285 1.297-2.095 1.32-3.714v-.916h-1.795q-3.099 0-4.824.792c-1.726.793-1.726 1.333-1.726 2.412m25-12.288q3.697 0 6.039 2.43c2.342 2.429 2.364 3.732 2.412 6.337q0 3.909-2.394 6.32c-2.395 2.413-3.627 2.425-6.092 2.448q-1.83 0-3.415-.775c-1.585-.775-1.854-1.197-2.395-2.042h-.07v12.324h-3.17v-26.62h3.17v2.394h.07q.95-1.338 2.5-2.077c1.55-.74 2.148-.74 3.345-.74m-5.915 8.768q0 2.606 1.531 4.208c1.532 1.602 2.342 1.602 3.962 1.602q2.535 0 3.996-1.602c1.461-1.602 1.474-2.47 1.497-4.208q0-2.605-1.497-4.19c-1.496-1.584-2.341-1.597-4.031-1.62q-2.5 0-3.98 1.638c-1.478 1.637-1.478 2.482-1.478 4.172m23.979-8.767q1.901 0 3.397.704c1.497.704 1.766 1.15 2.307 2.042l-2.465 1.866q-1.408-1.655-3.415-1.655-1.198 0-1.99.528c-.792.529-.792.798-.792 1.338q0 1.761 3.275 2.395 3.204.598 4.524 1.76c1.32 1.162 1.32 1.879 1.32 3.31q0 2.43-1.848 3.82c-1.849 1.392-2.882 1.404-4.947 1.427q-2.324 0-3.82-.722c-1.497-.722-1.862-1.227-2.589-2.236l2.395-1.972q1.901 1.972 4.049 1.972 1.408 0 2.394-.563c.986-.564.986-.893.986-1.55q0-1.725-3.169-2.394-3.52-.704-4.736-1.884c-1.214-1.18-1.214-1.8-1.214-3.046q0-2.324 1.795-3.714c1.796-1.391 2.712-1.404 4.543-1.426m14.401-4.261v4.683h4.542v2.747h-4.542v8.028q0 1.62.458 2.5c.457.88.95.88 1.936.88q1.409 0 2.254-.493v2.887q-.916.493-2.887.564-1.902 0-2.94-.581c-1.04-.581-1.198-.928-1.515-1.62s-.475-1.778-.475-3.257v-8.908h-3.662v-2.747h3.662v-4.683zm16.69 4.26q3.697 0 6.268 2.553c2.57 2.553 2.582 3.773 2.605 6.215q0 3.697-2.57 6.197c-2.57 2.5-3.815 2.523-6.303 2.57q-3.662 0-6.232-2.534c-2.57-2.536-2.594-3.768-2.641-6.233q0-3.627 2.553-6.162c2.552-2.535 3.808-2.558 6.32-2.605m-5.493 8.767q0 2.57 1.514 4.173c1.514 1.602 2.336 1.614 3.98 1.637q2.5 0 3.978-1.602c1.479-1.602 1.491-2.47 1.514-4.208q0-2.57-1.479-4.172c-1.479-1.602-2.336-1.615-4.05-1.638q-2.5 0-3.978 1.655c-1.479 1.655-1.479 2.488-1.479 4.155m27.078-8.767q2.816 0 4.419 1.69c1.602 1.69 1.614 2.64 1.637 4.542v10.88h-3.17v-9.965q0-1.936-1.003-3.063c-1.003-1.127-1.602-1.127-2.799-1.127q-2.218 0-3.433 1.48c-1.215 1.478-1.215 2.3-1.215 3.943v8.732h-3.169V28.93h3.17v2.57h.07q.669-1.408 2.165-2.2c1.497-.792 2.107-.792 3.328-.792m18.485 0q3.838 0 5.969 2.412c2.13 2.411 2.142 3.82 2.165 6.637v.88h-13.38q0 2.042 1.637 3.433c1.638 1.391 2.425 1.403 3.997 1.426q2.605 0 4.577-2.5l2.395 1.831q-2.676 3.416-7.395 3.416-3.838 0-6.18-2.447c-2.34-2.448-2.364-3.738-2.411-6.32q0-3.733 2.412-6.216c2.412-2.482 3.68-2.505 6.214-2.552m4.754 7.394q-.07-2.36-1.338-3.61c-1.268-1.25-2.007-1.25-3.486-1.25q-1.479 0-2.658.723c-1.18.721-1.404 1.103-1.849 1.866s-.669 1.52-.669 2.27zm16.268-7.394q3.697 0 6.038 2.43c2.342 2.429 2.365 3.732 2.412 6.337q0 3.909-2.394 6.32c-2.395 2.413-3.627 2.425-6.092 2.448q-1.83 0-3.415-.775c-1.585-.775-1.854-1.197-2.395-2.042h-.07v12.324h-3.169v-26.62h3.169v2.394h.07q.951-1.338 2.5-2.077c1.55-.74 2.148-.74 3.346-.74m-5.916 8.768q0 2.606 1.532 4.208c1.531 1.602 2.341 1.602 3.961 1.602q2.535 0 3.996-1.602c1.462-1.602 1.474-2.47 1.497-4.208q0-2.605-1.497-4.19c-1.496-1.584-2.341-1.597-4.031-1.62q-2.5 0-3.98 1.638c-1.478 1.637-1.478 2.482-1.478 4.172m21.514-8.345v10q0 1.972 1.039 3.063c1.039 1.092 1.614 1.092 2.764 1.092q2.218 0 3.433-1.461c1.215-1.462 1.215-2.294 1.215-3.962V28.93h3.169v16.69h-3.17v-2.57h-.07q-.669 1.408-2.183 2.2c-1.514.793-2.112.793-3.31.793q-2.781 0-4.419-1.726c-1.637-1.725-1.637-2.653-1.637-4.507V28.93zm24.648-.422q.88 0 1.408.21l-.14 3.416a6.2 6.2 0 0 0-1.585-.246q-4.683 0-4.753 5.211v8.521h-3.17V28.93h3.17v2.57h.07q.634-1.338 2.042-2.165c1.409-.827 1.924-.827 2.958-.827m12.077.035q3.98 0 6.409 2.64l-2.395 2.184Q305 31.5 302.57 31.5q-2.324 0-3.768 1.654c-1.444 1.655-1.444 2.523-1.444 4.261q0 2.465 1.514 4.05c1.514 1.584 2.301 1.596 3.874 1.619q2.5 0 4.049-1.866l2.253 2.253q-2.253 2.57-6.338 2.57-3.838 0-6.25-2.394c-2.412-2.394-2.434-3.697-2.482-6.302q.035-3.98 2.482-6.374c2.448-2.394 3.715-2.406 6.25-2.43M314.93 19v12.5h.07q.67-1.409 2.166-2.201c1.496-.792 2.107-.792 3.327-.792q2.782 0 4.419 1.69c1.637 1.69 1.637 2.64 1.637 4.542v10.88h-3.169v-9.965q0-1.936-1.003-3.063c-1.004-1.127-1.602-1.127-2.8-1.127q-2.218 0-3.415 1.444c-1.197 1.444-1.21 2.289-1.232 3.979v8.732h-3.17V19zm23.098 9.507q3.17 0 5.018 1.443c1.848 1.444 1.884 2.301 1.954 4.014v8.944q0 1.268.14 2.711h-2.816q-.106-1.127-.106-2.535h-.07q-1.092 1.62-2.518 2.289c-1.426.669-2.06.669-3.327.669q-2.57 0-4.173-1.374c-1.602-1.373-1.602-2.124-1.602-3.626q0-2.852 2.395-4.314c2.394-1.46 3.85-1.46 6.76-1.46h2.36v-.6q0-1.69-1.11-2.658c-1.109-.968-1.708-.968-2.905-.968q-1.338 0-2.341.405c-1.004.405-1.462.77-2.377 1.496l-1.901-1.972q2.71-2.394 6.62-2.464m-4.332 12.288q0 2.712 3.592 2.712 2.148 0 3.433-1.286c1.285-1.285 1.297-2.095 1.32-3.714v-.916h-1.795q-3.1 0-4.824.792c-1.726.793-1.726 1.333-1.726 2.412m21.55-12.288q1.9 0 3.397.704c1.497.704 1.766 1.15 2.307 2.042l-2.465 1.866q-1.409-1.655-3.416-1.655-1.197 0-1.989.528c-.792.529-.792.798-.792 1.338q0 1.761 3.274 2.395 3.205.598 4.525 1.76c1.32 1.162 1.32 1.879 1.32 3.31q0 2.43-1.848 3.82c-1.849 1.392-2.882 1.404-4.947 1.427q-2.324 0-3.82-.722c-1.497-.722-1.862-1.227-2.589-2.236l2.395-1.972q1.901 1.972 4.049 1.972 1.408 0 2.394-.563c.986-.564.986-.893.986-1.55q0-1.725-3.169-2.394-3.521-.704-4.736-1.884c-1.215-1.18-1.215-1.8-1.215-3.046q0-2.324 1.796-3.714c1.796-1.391 2.712-1.404 4.542-1.426m11.831-7.888q.951 0 1.638.687c.686.686.686 1.003.686 1.637q0 .986-.704 1.655c-.704.67-1.009.67-1.62.67q-.985 0-1.654-.67c-.67-.669-.67-.998-.67-1.655s.235-1.21.705-1.655 1.009-.669 1.62-.669m1.584 8.31v16.69h-3.17V28.93zm13.768-.422q2.816 0 4.419 1.69c1.602 1.69 1.614 2.64 1.637 4.542v10.88h-3.17v-9.965q0-1.936-1.003-3.063c-1.003-1.127-1.602-1.127-2.799-1.127q-2.218 0-3.433 1.48c-1.215 1.478-1.215 2.3-1.215 3.943v8.732h-3.169V28.93h3.17v2.57h.07q.669-1.408 2.165-2.2c1.497-.792 2.107-.792 3.328-.792m18.52 0q1.796 0 3.346.739c1.549.74 1.854 1.185 2.464 2.077h.07V28.93H410v16.69q-.035 3.697-2.535 6.057c-2.5 2.359-3.861 2.371-6.585 2.394q-5.176 0-8.169-2.993l2.148-2.676q2.5 2.711 5.986 2.711 2.993 0 4.49-1.532c1.496-1.531 1.496-2.412 1.496-4.172v-2.535h-.106q-.845 1.479-2.447 2.218c-1.602.74-2.178.74-3.327.74q-3.662 0-6.057-2.448c-2.394-2.447-2.406-3.644-2.43-6.038q.036-4.015 2.413-6.409c2.376-2.394 3.609-2.407 6.074-2.43m-5.106 8.768q0 2.5 1.461 4.014c1.462 1.514 2.319 1.537 4.032 1.585q2.535 0 3.996-1.514c1.462-1.514 1.474-2.372 1.497-4.085q0-2.605-1.497-4.19c-1.496-1.584-2.341-1.597-4.031-1.62q-2.5 0-3.98 1.655c-1.478 1.655-1.478 2.488-1.478 4.155" fill="#111"/></svg>