<svg width="18" height="18" viewBox="0 0 18 18" fill="none" xmlns="http://www.w3.org/2000/svg">
<path d="M17.375 8V7.73468L17.1248 7.64638L15.5977 7.10739C15.4339 6.61808 15.2581 6.11191 15.018 5.60249L15.7354 4.16771L15.8563 3.92596L15.6652 3.73483L14.2652 2.33484L14.074 2.14371L13.8323 2.26459L12.414 2.97372C11.9835 2.72848 11.4704 2.48765 10.8805 2.36808L10.3536 0.875192L10.2653 0.625H10H8H7.73468L7.64638 0.875192L7.10739 2.40234C6.63226 2.56156 6.13452 2.73627 5.68904 2.97526L4.2677 2.26459L4.02595 2.14371L3.83483 2.33483L2.33483 3.83483L2.14371 4.02595L2.26459 4.2677L2.97526 5.68904C2.73627 6.13452 2.56156 6.63226 2.40234 7.10739L0.875192 7.64638L0.625 7.73468V8V10V10.2653L0.875192 10.3536L2.40233 10.8926C2.56615 11.3819 2.74194 11.8881 2.98198 12.3975L2.26459 13.8323L2.14371 14.074L2.33484 14.2652L3.73483 15.6652L3.92596 15.8563L4.16771 15.7354L5.58597 15.0263C6.0165 15.2715 6.52964 15.5123 7.11948 15.6319L7.64638 17.1248L7.73468 17.375H8H10H10.2653L10.3536 17.1248L10.8926 15.5977C11.3819 15.4339 11.8881 15.2581 12.3975 15.018L13.8323 15.7354L14.074 15.8563L14.2652 15.6652L15.6652 14.2652L15.8563 14.074L15.7354 13.8323L15.0263 12.414C15.2715 11.9835 15.5123 11.4704 15.6319 10.8805L17.1248 10.3536L17 10H17.375V8ZM9 12.625C7.00711 12.625 5.375 10.9929 5.375 9C5.375 7.00711 7.00711 5.375 9 5.375C10.9929 5.375 12.625 7.00711 12.625 9C12.625 10.9929 10.9929 12.625 9 12.625Z" stroke="#7878A3" stroke-width="1"/>
</svg>
