<svg width="24" height="24" viewBox="0 0 16 16" fill="none" xmlns="http://www.w3.org/2000/svg">
<path d="M16 9V7L14.3 6.4C14.1 5.8 13.9 5.2 13.6 4.6L14.4 3L13 1.6L11.4 2.4C10.9 2.1 10.3 1.8 9.6 1.7L9 0H7L6.4 1.7C5.8 1.9 5.2 2.1 4.7 2.4L3.1 1.6L1.6 3.1L2.4 4.7C2.1 5.2 1.9 5.8 1.7 6.4L0 7V9L1.7 9.6C1.9 10.2 2.1 10.8 2.4 11.4L1.6 13L3 14.4L4.6 13.6C5.1 13.9 5.7 14.2 6.4 14.3L7 16H9L9.6 14.3C10.2 14.1 10.8 13.9 11.4 13.6L13 14.4L14.4 13L13.6 11.4C13.9 10.9 14.2 10.3 14.3 9.6L16 9ZM8 12C5.8 12 4 10.2 4 8C4 5.8 5.8 4 8 4C10.2 4 12 5.8 12 8C12 10.2 10.2 12 8 12Z" fill="#7878A3" fill-opacity="0.6"/>
</svg>
